<svg width="104" height="73" viewBox="0 0 104 73" fill="none" xmlns="http://www.w3.org/2000/svg">
<path d="M88.7397 69.5198C87.41 68.6397 86.2138 66.9361 85.1502 64.4099L70.6872 26.8114C70.6095 26.7845 70.5318 26.754 70.4534 26.7156C67.9052 25.4648 66.1378 22.7718 64.7298 20.4006C62.9152 17.3455 63.596 13.7819 63.6417 10.4015C63.6474 9.97788 63.7744 9.63341 63.9766 9.36699L60.3734 7.62939e-06H47.3619V0.448769C50.5189 0.448769 52.0979 1.44564 52.0979 3.43972C52.0979 4.03784 51.9646 4.71968 51.6992 5.48383L43.1279 27.8973C43.5228 28.1549 43.8853 28.4348 44.2181 28.7349L54.1417 2.89162L68.25 39.633H48.3453C48.4028 40.0665 48.4596 40.499 48.517 40.9293H68.7488L77.722 64.4099C78.2534 65.7062 78.5198 66.7701 78.5198 67.6006C78.5198 68.8305 78.0129 69.6781 76.9994 70.1431C76.4211 70.4085 75.7123 70.6348 74.8808 70.8243C75.1096 70.957 75.2866 71.1287 75.415 71.3252C78.0175 71.1024 80.6473 70.9907 83.3059 70.9907C84.2133 70.9907 85.1226 71.0066 86.0325 71.0346C87.0241 70.4812 88.0702 70.0878 89.1427 69.7678C89.0061 69.6873 88.8702 69.6064 88.7397 69.5198Z" fill="#D0A854"/>
<path d="M78.7247 72.0522C75.5007 72.0522 72.5342 71.6783 69.826 70.9305C67.1168 70.1827 64.7161 69.2525 62.6223 68.1389C60.5286 67.0257 58.7665 65.904 57.3379 64.7734L59.382 53.9057H59.8304C59.8304 55.4014 60.3118 57.1138 61.276 59.0405C62.2399 60.9686 63.5773 62.8215 65.2894 64.5992C67.0007 66.3776 69.0033 67.8569 71.2968 69.0361C73.59 70.216 76.0655 70.806 78.7247 70.806C82.1811 70.806 85.3218 70.3246 88.1467 69.36C90.9716 68.3965 93.2236 66.8512 94.902 64.7237C96.58 62.5973 97.4197 59.8057 97.4197 56.3486C97.4197 55.3187 97.336 54.2048 97.1703 53.0082C96.6385 49.9509 94.8271 47.3999 91.7365 45.3561C88.6455 43.312 84.574 41.1771 79.5226 38.9499C73.4069 36.158 68.5212 33.2504 64.8658 30.2258C59.8467 26.1049 57.3379 21.5186 57.3379 16.4662C57.3379 13.0761 58.3426 10.1934 60.354 7.81686C62.3644 5.44106 64.9903 3.62115 68.2307 2.35787C71.471 1.09494 74.9026 0.46347 78.5254 0.46347C82.0477 0.46347 85.48 1.16128 88.8204 2.55724C92.1601 3.95321 94.8935 5.86464 97.0209 8.29046L95.625 18.8594H95.1762C95.1762 17.4634 94.7775 15.8017 93.9796 13.874C93.1818 11.9466 92.0519 10.0685 90.5899 8.24044C89.1269 6.41309 87.3741 4.87558 85.3303 3.62897C83.2862 2.38271 81.0179 1.7594 78.5254 1.7594C75.1353 1.7594 72.3601 2.28302 70.1999 3.3299C68.0391 4.37679 66.4438 5.78978 65.4139 7.56747C64.3834 9.34586 63.8686 11.3151 63.8686 13.4749C63.8686 14.4395 63.9683 15.4363 64.1677 16.4662C65.3969 22.3161 71.4788 27.7503 82.4138 32.7683L84.458 33.7155C86.7837 34.7457 89.0939 35.8511 91.3874 37.0307C93.6809 38.2106 95.7747 39.548 97.6691 41.0437C101.889 44.3341 104 48.3222 104 53.0082C104 56.2989 103.26 59.1405 101.782 61.5334C100.302 63.9262 98.3417 65.8954 95.8992 67.4411C93.4563 68.9861 90.7396 70.1415 87.7483 70.9057C84.757 71.6705 81.7487 72.0522 78.7247 72.0522Z" fill="#0D2435"/>
<path d="M47.6097 39.633L33.5011 2.89159L19.3928 39.633H47.6097ZM72.9847 71.5887C69.528 71.19 66.0879 70.9906 62.6652 70.9906C59.1088 70.9906 55.6027 71.19 52.1463 71.5887V71.19C53.9411 70.958 55.3445 70.6086 56.3591 70.1431C57.3723 69.678 57.8796 68.8305 57.8796 67.6006C57.8796 66.7701 57.6131 65.7062 57.0817 64.4099L48.1082 40.9293H18.9443L9.92076 64.4099C9.42233 65.6402 9.17293 66.6534 9.17293 67.4509C9.17293 68.7471 9.72919 69.6365 10.8431 70.1183C11.9564 70.6004 13.4272 70.958 15.2552 71.19V71.5887C12.2966 71.19 9.75438 70.9906 7.62761 70.9906C5.56648 70.9906 3.02394 71.19 0 71.5887V71.19C1.92739 70.958 3.56459 70.4007 4.91054 69.5198C6.25684 68.6397 7.46088 66.9361 8.52515 64.4099L31.0586 5.4838C31.3243 4.71965 31.4573 4.03816 31.4573 3.44004C31.4573 1.4456 29.8783 0.44873 26.7213 0.44873V-3.05176e-05H39.7327L64.5096 64.4099C65.5732 66.9361 66.7694 68.6397 68.099 69.5198C69.4279 70.4007 71.057 70.958 72.9847 71.19V71.5887Z" fill="#D0A854"/>
<path d="M47.6097 39.633L33.5011 2.89159L19.3928 39.633H47.6097ZM72.9847 71.5887C69.528 71.19 66.0879 70.9906 62.6652 70.9906C59.1088 70.9906 55.6027 71.19 52.1463 71.5887V71.19C53.9411 70.958 55.3445 70.6086 56.3591 70.1431C57.3723 69.678 57.8796 68.8305 57.8796 67.6006C57.8796 66.7701 57.6131 65.7062 57.0817 64.4099L48.1082 40.9293H18.9443L9.92076 64.4099C9.42233 65.6402 9.17293 66.6534 9.17293 67.4509C9.17293 68.7471 9.72919 69.6365 10.8431 70.1183C11.9564 70.6004 13.4272 70.958 15.2552 71.19V71.5887C12.2966 71.19 9.75438 70.9906 7.62761 70.9906C5.56648 70.9906 3.02394 71.19 0 71.5887V71.19C1.92739 70.958 3.56459 70.4007 4.91054 69.5198C6.25684 68.6397 7.46088 66.9361 8.52515 64.4099L31.0586 5.4838C31.3243 4.71965 31.4573 4.03816 31.4573 3.44004C31.4573 1.4456 29.8783 0.44873 26.7213 0.44873V-3.05176e-05H39.7327L64.5096 64.4099C65.5732 66.9361 66.7694 68.6397 68.099 69.5198C69.4279 70.4007 71.057 70.958 72.9847 71.19V71.5887Z" fill="#D0A854"/>
</svg>
